<?xml version="1.0" encoding="utf-8" ?>
<svg baseProfile="tiny" height="100%" version="1.2" width="100%" xmlns="http://www.w3.org/2000/svg" xmlns:ev="http://www.w3.org/2001/xml-events" xmlns:xlink="http://www.w3.org/1999/xlink"><defs /><polygon fill="#abc608" points="271,386 271,389 270,390 267,390 267,407 287,407 287,386 274,386 273,387 272,386" stroke="black" stroke-width="1" /><text fill="black" x="277" y="396">Room 1</text><polygon fill="#2adc1a" points="233,363 233,387 268,387 268,363" stroke="black" stroke-width="1" /><text fill="black" x="250" y="375">Room 2</text><polygon fill="#09d71c" points="544,199 544,250 545,251 582,251 582,199" stroke="black" stroke-width="1" /><text fill="black" x="563" y="224">Room 3</text><polygon fill="#2c896e" points="10,147 9,148 9,192 175,192 175,147" stroke="black" stroke-width="1" /><text fill="black" x="92" y="169">Room 4</text><polygon fill="#03a924" points="544,141 544,196 582,196 582,142 581,141" stroke="black" stroke-width="1" /><text fill="black" x="562" y="168">Room 5</text><polygon fill="#e3d6fa" points="192,76 192,81 191,82 191,139 244,139 245,140 246,140 247,139 250,139 251,140 252,139 253,140 290,140 291,139 291,76 259,76 259,80 258,81 258,90 267,90 268,91 267,92 267,94 266,95 266,96 265,97 265,98 264,99 264,100 263,101 263,103 262,104 262,105 261,106 261,107 260,108 260,110 259,111 259,112 258,113 258,114 257,115 256,115 255,114 255,113 254,112 254,111 253,110 253,109 252,108 252,107 251,106 251,105 250,104 250,103 249,102 249,101 248,100 248,99 247,98 247,97 246,96 246,95 245,94 245,93 244,92 244,91 245,90 254,90 254,89 253,88 253,81 252,80 252,76" stroke="black" stroke-width="1" /><text fill="black" x="240" y="108">Room 6</text><polygon fill="#aa7ea1" points="411,9 410,10 405,10 404,11 401,11 400,12 399,12 398,13 396,13 395,14 394,14 393,15 392,15 391,16 390,16 388,18 387,18 383,22 382,22 378,26 378,27 375,30 375,31 373,33 373,34 372,35 372,36 370,38 370,40 369,41 369,42 368,43 368,44 367,45 367,46 366,47 366,49 365,50 365,52 364,53 364,56 363,57 363,61 362,62 362,66 361,67 361,74 360,75 356,75 355,76 301,76 301,311 300,312 248,312 247,311 247,310 246,309 246,287 247,286 251,286 252,287 252,306 290,306 290,258 291,257 290,256 250,256 250,270 249,271 248,271 247,270 247,228 248,227 249,227 250,228 250,253 291,253 291,252 290,251 290,249 291,248 291,201 249,201 248,200 248,199 250,197 291,197 291,143 257,143 256,142 255,143 250,143 251,144 251,171 249,173 248,172 248,143 247,142 246,142 245,143 244,142 243,143 242,142 191,142 191,145 190,146 184,146 183,147 180,147 180,246 220,246 221,247 221,248 220,249 176,249 175,248 175,195 135,195 134,196 134,197 135,198 134,199 134,249 133,250 89,250 87,248 88,247 131,247 131,200 132,199 131,198 131,195 73,195 73,217 72,218 72,246 73,247 74,247 75,248 75,249 74,250 71,250 69,248 69,195 10,195 9,196 9,246 10,247 21,247 22,248 22,249 21,250 10,250 9,251 9,279 10,280 11,280 12,279 13,280 34,280 34,267 35,266 39,266 40,267 40,283 38,285 9,285 9,304 10,305 49,305 50,306 50,307 49,308 10,308 9,309 9,355 10,356 64,356 64,330 65,329 65,309 64,308 63,308 62,307 62,306 63,305 67,305 68,306 68,329 67,330 67,355 68,356 108,356 108,321 107,322 105,322 103,320 103,313 104,312 103,311 103,308 104,307 103,308 83,308 82,307 82,306 83,305 104,305 103,304 103,271 104,270 103,269 104,268 155,268 156,269 155,270 156,271 156,312 157,313 155,315 156,316 156,320 154,322 111,322 111,355 112,356 121,356 122,355 175,355 175,316 174,315 169,315 168,314 168,313 169,312 179,312 180,313 180,339 181,339 182,338 183,338 184,337 185,337 186,336 187,336 188,335 189,335 191,333 193,333 195,331 197,331 198,330 199,330 201,328 202,328 203,327 205,327 206,328 205,329 205,331 204,332 204,334 203,335 203,337 202,338 202,340 201,341 201,343 200,344 200,346 199,347 199,349 198,350 198,352 197,353 197,355 195,357 188,350 187,351 187,352 184,355 184,356 183,357 183,358 226,358 227,357 229,357 230,358 231,358 232,357 233,358 266,358 266,333 268,331 271,331 272,332 272,362 286,362 287,361 287,341 288,340 372,340 373,341 373,371 372,372 363,372 363,395 362,396 357,396 356,395 356,394 357,393 360,393 360,370 361,369 370,369 370,345 339,345 338,346 338,347 339,348 338,349 339,350 339,351 338,352 338,393 343,393 344,394 344,395 343,396 336,396 335,395 335,345 293,345 292,346 292,393 321,393 322,394 322,395 321,396 293,396 292,397 292,411 291,412 228,412 227,411 227,363 180,363 182,363 183,364 183,367 182,368 183,369 183,393 182,394 182,396 183,397 182,398 182,455 183,456 360,456 361,455 361,422 362,421 363,421 364,422 364,456 394,456 395,455 395,448 386,448 385,447 385,446 386,445 386,443 387,442 387,441 388,440 388,439 389,438 389,436 390,435 390,434 391,433 391,431 392,430 392,429 393,428 393,427 394,426 394,424 395,423 396,423 397,424 397,425 398,426 398,427 399,428 399,429 401,431 401,432 402,433 402,434 403,435 403,436 404,437 404,438 405,439 405,440 406,441 406,442 408,444 408,445 409,446 409,447 408,448 399,448 399,451 400,452 400,456 430,456 430,421 431,420 433,422 433,456 472,456 472,396 445,396 444,395 444,394 445,393 472,393 472,383 473,382 506,382 507,383 507,384 506,385 478,385 478,456 534,456 534,429 535,428 540,428 541,429 541,456 601,456 602,457 647,457 648,456 648,208 638,208 637,207 630,207 630,216 629,217 628,217 627,216 626,216 625,215 623,215 622,214 621,214 620,213 619,213 618,212 616,212 615,211 614,211 613,210 612,210 611,209 609,209 608,208 607,208 605,206 606,205 607,205 608,204 609,204 610,203 611,203 612,202 613,202 614,201 615,201 616,200 617,200 619,198 620,198 621,197 622,197 623,196 624,196 625,195 626,195 627,194 628,194 629,193 630,194 630,203 634,203 635,202 640,202 641,201 647,201 648,200 648,180 610,180 610,183 609,184 610,185 609,186 609,187 610,188 609,189 608,189 606,187 606,186 607,185 606,184 606,176 607,175 607,163 606,162 607,161 607,160 608,159 609,159 610,160 610,176 648,176 648,147 639,147 638,146 638,142 637,141 610,141 610,145 608,147 607,146 607,139 608,138 638,138 638,82 639,81 639,76 638,75 544,75 544,139 583,139 585,141 585,262 586,262 587,263 587,313 585,315 535,315 533,313 533,263 534,262 534,112 533,111 533,75 482,75 481,76 480,75 475,75 474,74 474,73 473,72 473,65 472,64 472,61 471,60 471,57 470,56 470,53 469,52 469,50 468,49 468,47 467,46 467,45 466,44 466,42 465,41 465,40 464,39 464,38 463,37 463,36 462,35 462,34 460,32 460,31 458,29 458,28 456,26 456,25 452,21 451,21 447,17 446,17 444,15 443,15 442,14 441,14 440,13 439,13 438,12 436,12 435,11 432,11 431,10 427,10 426,9" stroke="black" stroke-width="1" /><text fill="black" x="377" y="265">Room 7</text></svg>