<?xml version="1.0" encoding="utf-8" ?>
<svg baseProfile="tiny" height="100%" version="1.2" width="100%" xmlns="http://www.w3.org/2000/svg" xmlns:ev="http://www.w3.org/2001/xml-events" xmlns:xlink="http://www.w3.org/1999/xlink"><defs /><polygon fill="#d22fb0" points="719,465 718,466 718,468 717,469 717,487 735,487 735,465" stroke="black" stroke-width="1" /><text fill="black" x="726" y="476">Room 1</text><polygon fill="#d1a80a" points="663,465 663,487 685,487 685,468 684,467 684,466 683,465" stroke="black" stroke-width="1" /><text fill="black" x="673" y="476">Room 2</text><polygon fill="#c48f3d" points="436,465 435,466 435,467 434,468 434,485 454,485 454,465" stroke="black" stroke-width="1" /><text fill="black" x="444" y="475">Room 3</text><polygon fill="#8e17f1" points="383,465 383,485 402,485 402,469 401,468 401,466 400,465" stroke="black" stroke-width="1" /><text fill="black" x="392" y="475">Room 4</text><polygon fill="#622466" points="687,445 686,446 686,465 687,466 710,466 711,465 712,466 715,466 715,465 716,464 716,460 715,459 716,458 716,456 715,455 715,454 716,453 716,450 715,449 716,448 716,446 715,445" stroke="black" stroke-width="1" /><text fill="black" x="700" y="455">Room 5</text><polygon fill="#5d7b8f" points="404,445 403,446 403,465 404,466 432,466 433,465 433,446 432,445" stroke="black" stroke-width="1" /><text fill="black" x="418" y="455">Room 6</text><polygon fill="#bfefbb" points="366,371 366,396 394,396 394,371" stroke="black" stroke-width="1" /><text fill="black" x="380" y="383">Room 7</text><polygon fill="#c2743c" points="904,337 903,338 903,359 923,359 923,358 924,357 930,357 931,358 931,359 945,359 945,354 946,353 949,353 949,338 948,337" stroke="black" stroke-width="1" /><text fill="black" x="925" y="347">Room 8</text><polygon fill="#ab0283" points="903,295 903,329 952,329 952,295" stroke="black" stroke-width="1" /><text fill="black" x="927" y="312">Room 9</text><polygon fill="#20271d" points="310,272 310,375 311,374 334,374 335,375 361,375 361,273 360,272" stroke="black" stroke-width="1" /><text fill="black" x="335" y="323">Room 10</text></svg>