<?xml version="1.0" encoding="utf-8" ?>
<svg baseProfile="tiny" height="100%" version="1.2" width="100%" xmlns="http://www.w3.org/2000/svg" xmlns:ev="http://www.w3.org/2001/xml-events" xmlns:xlink="http://www.w3.org/1999/xlink"><defs /><polygon fill="#acd4ed" points="130,51 130,76 131,76 132,75 133,76 146,76 147,75 148,75 148,51" stroke="black" stroke-width="1" /><text fill="black" x="138" y="63">Room 1</text><polygon fill="#8b7938" points="269,6 269,50 268,51 266,51 265,50 265,23 130,23 130,33 129,34 129,35 128,36 126,36 125,35 125,34 124,33 124,23 84,23 83,24 83,33 82,34 80,34 79,33 79,24 78,23 16,23 15,24 6,24 6,97 78,97 79,96 79,46 80,45 82,45 83,46 83,75 119,75 120,76 121,76 122,75 125,75 124,74 124,46 125,45 125,43 126,42 128,42 129,43 129,44 130,45 130,48 153,48 154,49 154,52 153,53 152,53 152,79 151,80 83,80 83,100 82,101 7,101 6,102 6,205 81,205 82,206 82,250 83,251 96,251 97,252 97,292 247,292 248,291 250,291 250,253 251,252 265,252 265,250 266,249 265,248 265,216 266,215 265,214 265,106 266,105 266,104 265,103 266,102 266,101 267,100 269,100 270,101 270,134 322,134 322,105 323,104 325,104 327,106 327,167 326,168 323,168 322,167 322,138 270,138 270,208 322,208 322,176 323,175 326,175 327,176 327,183 326,184 326,208 408,208 409,209 409,214 435,214 435,212 436,211 436,209 435,208 436,207 435,206 436,205 436,204 435,203 436,202 437,202 438,203 438,214 440,214 440,203 441,202 442,203 442,214 444,214 444,203 445,202 446,202 447,203 447,214 448,214 449,213 449,203 450,202 451,203 451,214 453,214 453,203 454,202 455,202 456,203 455,204 455,206 456,207 456,208 455,209 455,212 456,213 456,214 457,214 457,203 458,202 459,202 460,203 460,214 462,214 462,203 463,202 464,203 464,214 466,214 466,203 467,202 468,202 469,203 469,214 470,214 471,213 471,209 470,208 471,207 471,203 472,202 473,203 473,214 490,214 490,180 424,180 423,179 405,179 404,178 404,176 374,176 373,175 373,165 374,164 377,164 378,165 378,172 403,172 404,171 404,145 403,144 402,145 383,145 382,144 381,145 379,145 378,144 378,157 377,158 374,158 373,157 373,145 368,145 366,143 366,108 367,107 352,107 351,106 344,106 342,104 344,102 403,102 404,103 404,24 405,23 405,7 372,7 372,51 375,51 376,52 377,52 378,53 378,93 377,94 374,94 373,93 373,56 368,56 367,55 367,7 296,7 295,6" stroke="black" stroke-width="1" /><text fill="black" x="206" y="137">Room 2</text></svg>