<?xml version="1.0" encoding="utf-8" ?>
<svg baseProfile="tiny" height="100%" version="1.2" width="100%" xmlns="http://www.w3.org/2000/svg" xmlns:ev="http://www.w3.org/2001/xml-events" xmlns:xlink="http://www.w3.org/1999/xlink"><defs /><polygon fill="#12c870" points="892,971 892,1024 891,1025 892,1026 1029,1026 1029,975 1006,975 1005,974 1005,971" stroke="black" stroke-width="1" /><text fill="black" x="959" y="998">Room 1</text><polygon fill="#a53a49" points="308,970 308,998 307,999 305,999 305,1018 329,1018 330,1019 331,1019 331,984 330,984 328,982 327,982 325,980 324,980 323,979 322,979 319,976 318,976 317,975 316,975 314,973 313,973 311,971 310,971 309,970" stroke="black" stroke-width="1" /><text fill="black" x="318" y="997">Room 2</text><polygon fill="#369d35" points="130,950 130,956 129,957 128,957 128,958 127,959 113,959 113,975 130,975 140,965 140,963 139,962 139,961 136,958 136,957 132,953 132,952" stroke="black" stroke-width="1" /><text fill="black" x="125" y="965">Room 3</text><polygon fill="#05e564" points="866,940 866,957 868,957 869,958 869,959 870,960 869,961 869,983 887,983 887,967 889,965 1005,965 1005,940" stroke="black" stroke-width="1" /><text fill="black" x="930" y="954">Room 4</text><polygon fill="#2f1c0e" points="488,938 488,981 504,981 504,963 503,962 503,958 504,957 506,957 506,938" stroke="black" stroke-width="1" /><text fill="black" x="496" y="958">Room 5</text><polygon fill="#3e37b9" points="1043,824 1043,856 1059,856 1060,855 1065,855 1066,856 1083,856 1084,857 1083,856 1084,855 1084,833 1085,832 1085,824" stroke="black" stroke-width="1" /><text fill="black" x="1063" y="839">Room 6</text><polygon fill="#ac2ce1" points="1043,797 1043,820 1085,820 1085,797" stroke="black" stroke-width="1" /><text fill="black" x="1064" y="808">Room 7</text><polygon fill="#7b9c99" points="985,796 984,797 984,896 985,897 986,897 987,896 988,896 989,897 990,897 991,896 1012,896 1013,897 1041,897 1041,889 1040,888 1040,886 1041,885 1040,884 1040,882 1041,881 1040,880 1040,878 1041,877 1040,876 1040,874 1041,873 1040,872 1040,870 1041,869 1041,867 1042,866 1043,867 1043,869 1059,869 1059,867 1060,866 1061,866 1062,867 1061,868 1061,876 1062,877 1061,878 1061,880 1062,881 1061,882 1061,885 1062,886 1062,887 1061,888 1063,888 1063,857 1062,857 1061,858 1061,860 1062,861 1061,862 1061,863 1062,864 1060,866 1059,865 1059,864 1043,864 1043,865 1042,866 1041,865 1041,864 1040,863 1040,861 1041,860 1040,859 1040,857 1041,856 1041,797 1012,797 1011,796" stroke="black" stroke-width="1" /><text fill="black" x="1013" y="846">Room 8</text><polygon fill="#fafe7f" points="191,769 190,770 189,770 189,771 188,772 188,773 185,776 185,777 183,779 183,780 180,783 180,784 178,786 178,787 176,789 176,790 173,793 173,794 171,796 171,797 168,800 168,801 166,803 166,804 163,807 163,808 161,810 161,811 158,814 158,815 156,817 156,818 153,821 153,822 150,825 150,826 148,828 148,829 145,832 145,833 142,836 142,837 140,839 140,840 138,842 138,843 135,846 135,847 133,849 133,850 131,852 131,853 130,854 130,946 132,948 132,949 136,953 136,954 139,957 139,958 142,961 142,962 145,965 145,966 148,969 148,970 152,974 152,975 154,977 154,978 158,982 158,983 161,986 161,987 163,989 163,990 168,995 168,996 170,998 170,999 174,1003 174,1004 177,1007 177,1008 179,1010 179,1011 180,1012 181,1012 183,1014 183,1015 185,1017 185,1018 187,1020 187,1021 190,1024 190,1025 191,1026 270,1026 269,1025 270,1024 270,1020 271,1019 273,1019 274,1018 285,1018 286,1019 286,999 277,999 276,998 278,996 306,996 306,967 307,966 307,965 313,959 313,935 311,935 310,936 309,936 307,938 307,940 306,941 306,944 305,945 305,948 304,949 304,952 303,953 303,955 302,956 302,959 301,960 301,963 300,964 300,967 299,968 299,970 298,971 298,974 297,975 297,978 296,979 296,981 295,982 295,983 294,984 292,984 291,985 286,985 285,986 271,986 270,985 263,985 262,984 258,984 257,983 253,983 252,982 249,982 248,981 246,981 245,980 243,980 242,979 240,979 239,978 238,978 237,977 235,977 234,976 233,976 232,975 231,975 230,974 228,974 227,973 226,973 225,972 224,972 222,970 221,970 220,969 219,969 217,967 216,967 214,965 213,965 212,964 211,964 206,959 205,959 193,947 189,951 186,951 184,949 184,948 183,947 183,941 180,938 180,936 179,935 180,934 180,932 181,931 181,930 183,928 186,928 187,929 188,929 191,932 191,933 193,935 193,936 194,937 194,940 195,941 195,942 194,943 194,944 195,945 195,946 205,956 206,956 210,960 211,960 213,962 214,962 216,964 217,964 219,966 220,966 222,968 223,968 224,969 225,969 226,970 227,970 228,971 229,971 230,972 231,972 232,973 234,973 235,974 236,974 237,975 239,975 240,976 241,976 242,977 244,977 245,978 247,978 248,979 251,979 252,980 255,980 256,981 260,981 261,982 267,982 268,983 288,983 289,982 292,982 293,981 293,980 294,979 294,976 295,975 295,972 296,971 296,969 297,968 297,965 298,964 298,961 299,960 299,957 300,956 300,954 301,953 301,950 302,949 302,946 303,945 303,942 304,941 304,939 305,938 305,937 308,934 309,934 310,933 311,933 312,932 313,932 313,855 307,855 306,854 306,852 305,851 305,850 304,849 304,847 303,846 304,845 305,845 306,846 306,847 307,848 307,849 308,850 308,852 311,852 312,853 313,853 313,831 303,831 303,832 302,833 301,833 300,832 300,830 298,828 298,827 297,826 297,825 296,824 296,822 294,820 294,819 293,818 293,816 291,814 291,812 292,811 294,813 294,814 295,815 295,816 296,817 296,818 297,819 297,820 298,821 298,822 299,823 299,824 300,825 300,826 301,827 313,827 313,790 281,790 280,789 279,789 278,788 278,770 277,769 264,769 264,782 265,783 265,784 266,785 266,786 267,787 267,788 269,790 268,791 267,791 265,789 265,788 264,787 264,786 262,784 251,784 251,788 252,789 252,791 253,792 253,795 254,796 254,798 255,799 255,802 256,803 256,805 257,806 257,809 277,809 278,810 278,811 277,812 275,812 274,811 273,812 272,811 267,811 266,812 256,812 255,813 251,813 250,814 247,814 246,815 243,815 242,816 240,816 239,817 237,817 236,818 235,818 234,819 232,819 231,820 230,820 229,821 228,821 227,822 226,822 225,823 224,823 223,824 222,824 220,826 219,826 217,828 216,828 214,830 213,830 210,833 209,833 204,838 203,838 194,847 194,849 195,850 195,852 194,853 194,855 193,856 193,857 192,858 192,859 187,864 186,864 185,865 184,865 180,861 180,854 183,851 183,845 184,844 184,843 185,842 189,842 192,845 193,845 205,833 206,833 209,830 210,830 213,827 214,827 216,825 217,825 219,823 220,823 221,822 222,822 223,821 224,821 226,819 228,819 229,818 230,818 231,817 232,817 233,816 234,816 235,815 237,815 238,814 240,814 241,813 243,813 244,812 246,812 246,808 245,807 245,805 244,804 244,801 243,800 243,798 242,797 242,794 241,793 241,791 240,790 240,787 239,787 238,788 237,788 236,789 234,789 233,790 232,790 231,791 230,791 229,792 228,792 227,793 226,793 225,794 224,794 223,793 223,792 224,791 225,791 226,790 227,790 228,789 229,789 230,788 232,788 233,787 234,787 235,786 236,786 237,785 238,785 239,784 240,784 241,783 242,783 243,782 246,782 246,769" stroke="black" stroke-width="1" /><text fill="black" x="226" y="898">Room 9</text><polygon fill="#44ccff" points="47,769 47,776 59,776 60,777 60,887 61,886 62,886 63,887 64,886 95,886 96,887 97,886 99,886 100,887 101,887 102,886 105,886 107,888 107,895 106,896 105,896 104,895 104,890 60,890 60,924 106,924 107,925 107,927 106,928 60,928 60,975 85,975 85,940 86,939 125,939 125,853 126,852 126,851 129,848 129,847 131,845 131,844 134,841 134,840 136,838 136,837 139,834 139,833 141,831 141,830 143,828 143,827 146,824 146,823 149,820 149,819 151,817 151,816 154,813 154,812 156,810 156,809 159,806 159,805 161,803 161,802 164,799 164,798 166,796 166,795 169,792 169,791 171,789 171,788 174,785 174,784 176,782 176,781 179,778 179,777 181,775 181,774 183,772 183,771 185,769" stroke="black" stroke-width="1" /><text fill="black" x="100" y="848">Room 10</text><polygon fill="#19fdff" points="900,718 900,776 901,775 902,775 903,774 904,774 905,773 906,773 907,772 908,772 909,771 910,771 911,770 912,770 914,768 915,768 916,767 917,767 918,768 918,792 920,792 921,793 922,792 980,792 980,724 978,722 978,718" stroke="black" stroke-width="1" /><text fill="black" x="941" y="753">Room 11</text><polygon fill="#0c4261" points="381,694 381,736 484,736 485,737 485,694" stroke="black" stroke-width="1" /><text fill="black" x="433" y="715">Room 12</text><polygon fill="#8efe63" points="879,416 879,660 877,662 828,662 828,674 902,674 903,675 903,707 906,707 906,676 907,675 918,675 919,676 919,678 918,679 910,679 910,707 919,707 919,698 921,696 938,696 940,698 940,700 941,701 941,702 942,703 942,704 943,705 943,707 960,707 960,678 933,678 932,677 933,676 962,676 963,677 963,707 978,707 978,680 979,679 985,679 987,681 986,682 986,683 987,684 987,719 986,720 1001,720 1002,721 1002,725 1001,726 984,726 984,793 1017,793 1018,794 1087,794 1088,795 1088,827 1092,827 1093,826 1094,827 1095,827 1096,828 1096,829 1095,830 1088,830 1088,832 1087,833 1087,855 1089,857 1088,856 1089,855 1108,855 1109,856 1109,830 1105,830 1104,829 1104,828 1105,827 1107,827 1108,826 1109,827 1109,809 1110,808 1113,808 1114,809 1114,855 1127,855 1129,857 1129,900 1128,901 1085,901 1083,899 1083,875 1066,875 1066,883 1065,884 1066,885 1066,890 1065,891 1060,891 1059,890 1059,889 1043,889 1043,899 1042,900 1022,900 1021,899 984,899 984,919 999,919 1000,920 1001,920 1003,922 1003,938 1007,938 1008,939 1008,972 1029,972 1029,939 1030,938 1125,938 1126,939 1126,941 1125,942 1086,942 1086,963 1085,964 1081,964 1080,963 1080,942 1034,942 1034,1026 1080,1026 1080,978 1081,977 1085,977 1086,978 1086,1026 1109,1026 1109,1023 1110,1022 1110,1019 1108,1019 1107,1018 1102,1018 1101,1017 1103,1015 1103,1014 1105,1012 1105,1011 1106,1010 1106,1009 1108,1007 1108,1006 1110,1004 1110,1003 1112,1001 1113,1001 1114,1002 1114,1003 1115,1004 1115,1005 1116,1006 1116,1007 1117,1008 1117,1009 1118,1010 1118,1012 1119,1013 1119,1014 1120,1015 1120,1016 1121,1017 1121,1018 1122,1019 1121,1020 1117,1020 1116,1019 1113,1019 1113,1025 1114,1026 1153,1026 1155,1024 1156,1024 1157,1023 1158,1023 1159,1022 1160,1022 1161,1021 1162,1021 1161,1021 1160,1020 1158,1020 1157,1019 1155,1019 1154,1018 1152,1018 1151,1017 1152,1016 1153,1016 1154,1015 1156,1015 1157,1014 1158,1014 1159,1013 1161,1013 1161,1012 1159,1012 1158,1011 1155,1011 1153,1009 1154,1008 1155,1008 1156,1009 1159,1009 1160,1010 1164,1010 1165,1011 1167,1011 1168,1012 1167,1013 1166,1013 1165,1014 1163,1014 1162,1015 1160,1015 1159,1016 1158,1016 1157,1017 1159,1017 1160,1018 1162,1018 1163,1019 1165,1019 1167,1021 1166,1022 1165,1022 1164,1023 1162,1023 1161,1024 1160,1024 1159,1025 1158,1025 1158,1026 1209,1026 1208,1025 1208,1023 1207,1022 1207,1020 1206,1020 1205,1021 1203,1021 1202,1022 1201,1022 1200,1023 1199,1023 1198,1022 1198,1015 1199,1014 1199,1004 1200,1003 1201,1003 1202,1004 1203,1004 1206,1007 1207,1007 1209,1009 1210,1009 1213,1012 1214,1012 1217,1015 1216,1016 1215,1016 1214,1017 1213,1017 1212,1018 1210,1018 1210,1020 1211,1021 1211,1022 1212,1023 1212,1024 1214,1026 1234,1026 1234,1007 1233,1006 1233,943 1204,943 1203,942 1203,938 1204,937 1233,937 1233,903 1234,902 1242,902 1243,903 1243,1004 1299,1004 1300,1003 1303,1003 1304,1004 1305,1003 1306,1003 1306,902 1307,901 1307,734 1308,733 1308,564 1309,563 1309,416" stroke="black" stroke-width="1" /><text fill="black" x="1122" y="678">Room 13</text><polygon fill="#89dd4f" points="72,4 72,90 71,91 4,91 4,487 39,487 39,172 40,171 46,171 47,172 47,199 49,199 50,198 51,198 52,197 54,197 55,196 56,196 57,195 59,195 60,194 62,194 63,193 65,193 66,192 68,192 69,191 71,191 72,190 75,190 76,189 79,189 80,188 83,188 84,187 85,188 85,189 86,190 86,191 85,192 83,192 82,193 79,193 78,194 76,194 75,195 72,195 71,196 69,196 68,197 65,197 64,198 62,198 61,199 60,199 59,200 57,200 56,201 55,201 54,202 53,202 52,203 50,203 49,204 48,204 48,473 47,474 47,764 327,764 327,622 329,620 330,620 332,622 332,783 331,784 328,784 327,783 327,776 310,776 310,786 316,786 317,787 318,787 319,788 319,961 320,962 321,962 323,964 324,964 325,965 326,965 328,967 329,967 331,969 332,969 334,971 335,971 336,972 337,972 338,973 435,973 435,967 437,965 438,966 439,966 440,965 447,965 448,966 449,965 450,965 451,966 452,965 453,965 453,961 454,960 463,960 464,961 464,965 478,965 478,943 477,942 464,942 464,948 463,949 454,949 453,948 453,931 454,930 487,930 488,931 488,934 546,934 547,935 547,957 551,957 552,958 552,962 551,963 547,963 547,981 550,981 551,982 551,984 550,985 488,985 488,989 487,990 480,990 480,1086 576,1086 576,1007 577,1006 591,1006 592,1007 592,1019 630,1019 630,951 623,951 622,952 622,953 621,954 621,955 620,956 620,957 619,958 619,960 618,961 618,962 619,962 620,963 621,963 622,964 623,964 625,966 618,973 617,973 612,978 611,978 610,979 609,978 609,974 608,973 608,966 607,965 607,960 606,959 607,958 609,958 610,959 612,959 613,960 615,960 615,958 616,957 616,954 617,953 617,951 612,951 611,952 610,951 598,951 596,949 596,937 582,937 581,938 581,965 580,966 578,966 577,965 577,943 576,942 577,941 576,940 576,939 577,938 576,937 570,937 568,935 568,934 569,933 571,933 572,932 601,932 602,933 602,945 619,945 619,944 620,943 620,940 621,939 621,936 622,935 622,932 623,931 623,929 624,928 624,925 625,924 625,922 626,921 628,921 629,922 631,922 632,923 633,923 635,925 635,927 634,928 634,929 633,930 633,931 632,932 632,933 631,934 631,935 630,936 630,937 629,938 629,939 628,940 628,941 627,942 627,943 626,944 626,945 635,945 636,946 636,947 637,947 638,948 638,1019 639,1019 640,1020 640,1027 639,1028 585,1028 585,1075 605,1075 606,1076 606,1077 629,1077 631,1075 639,1075 640,1076 640,1077 662,1077 664,1075 672,1075 673,1076 673,1077 695,1077 697,1075 705,1075 706,1076 706,1077 728,1077 728,1076 729,1075 738,1075 739,1076 739,1077 761,1077 761,1076 762,1075 783,1075 783,1028 726,1028 725,1027 725,1020 726,1019 727,1019 727,980 728,979 731,979 732,978 735,978 736,979 737,978 738,978 739,979 742,979 743,978 744,979 756,979 757,978 758,979 760,979 761,980 761,982 760,983 732,983 732,984 733,985 733,1019 791,1019 792,1020 792,1087 874,1087 874,1031 871,1031 870,1030 870,1025 871,1024 887,1024 887,989 855,989 855,1023 854,1024 855,1025 861,1025 862,1026 862,1028 861,1029 851,1029 850,1028 850,988 817,988 816,987 816,983 817,982 825,982 825,963 822,963 820,961 820,960 821,959 821,958 822,957 825,957 825,940 823,940 822,939 823,938 825,938 826,937 828,937 829,938 830,938 831,937 833,937 834,938 835,937 837,937 838,938 839,938 840,937 842,937 843,938 844,937 846,937 847,938 848,938 849,937 851,937 852,938 853,938 854,937 856,937 857,938 858,937 860,937 861,938 981,938 981,922 982,921 982,899 976,899 974,897 974,896 976,894 980,894 980,798 941,798 940,799 940,866 955,866 956,867 956,870 955,871 917,871 916,870 916,866 917,865 935,865 935,797 919,797 918,798 898,798 898,871 897,872 897,876 914,876 915,877 915,894 927,894 928,895 928,898 927,899 912,899 911,900 888,900 887,899 887,897 888,896 910,896 910,880 909,881 894,881 893,880 893,872 892,871 865,871 864,870 864,868 865,867 892,867 893,866 892,865 892,862 893,861 893,860 892,859 893,858 893,853 892,852 892,851 893,850 893,792 895,790 897,790 898,791 898,792 900,792 900,779 899,779 898,780 897,779 894,779 893,778 893,711 894,710 894,683 811,683 811,765 810,766 806,766 805,765 805,704 770,704 769,703 769,695 770,694 803,694 803,678 802,677 803,676 803,675 804,674 806,674 806,659 807,658 807,629 806,628 806,622 805,621 805,616 804,615 804,612 803,611 803,608 802,607 802,605 801,604 801,602 800,601 800,599 799,598 799,596 798,595 798,593 797,592 797,591 796,590 796,589 795,588 795,587 794,586 794,585 793,584 793,583 792,582 792,581 791,580 791,579 789,577 789,576 787,574 787,573 785,571 785,570 783,568 783,567 778,562 778,561 767,550 766,550 762,546 761,546 758,543 757,543 755,541 754,541 752,539 751,539 750,538 749,538 748,537 747,537 745,535 743,535 741,533 739,533 738,532 737,532 736,531 735,531 734,530 732,530 731,529 729,529 728,528 727,528 726,527 724,527 723,526 720,526 719,525 716,525 715,524 712,524 711,523 706,523 705,522 699,522 698,521 672,521 671,522 664,522 663,523 659,523 658,524 655,524 654,525 652,525 651,526 648,526 647,527 645,527 644,528 642,528 641,529 640,529 639,530 637,530 636,531 635,531 634,532 633,532 632,533 631,533 630,534 629,534 628,535 627,535 625,537 624,537 622,539 621,539 619,541 618,541 615,544 614,544 600,558 600,559 597,562 597,563 594,566 594,567 593,568 593,569 591,571 591,572 590,573 590,574 589,575 589,576 587,578 587,579 586,580 586,582 585,583 585,584 584,585 584,586 583,587 583,589 582,590 582,591 581,592 581,594 580,595 580,597 579,598 579,600 578,601 578,604 577,605 577,608 576,609 576,612 575,613 575,617 574,618 574,623 573,624 573,630 572,631 572,641 571,642 571,680 572,681 572,693 573,694 604,694 605,695 605,701 603,703 602,702 575,702 574,703 574,706 575,707 574,708 574,765 573,766 573,767 572,768 573,769 572,770 573,771 573,868 641,868 642,869 642,871 641,872 638,872 638,882 637,883 635,883 634,882 634,872 573,872 573,893 572,894 571,894 570,895 567,895 566,894 566,881 547,881 547,893 554,893 555,894 555,896 553,898 544,898 543,897 543,894 542,893 542,878 544,876 568,876 568,872 567,871 567,789 568,788 568,766 567,766 566,765 566,695 567,694 567,688 536,688 536,689 537,690 537,692 538,693 538,696 539,696 540,695 542,695 543,694 544,694 545,693 546,693 547,694 547,699 546,700 546,708 545,709 545,713 544,714 540,710 539,710 535,706 534,706 531,703 530,703 528,701 528,700 529,699 531,699 532,698 533,698 534,697 535,697 535,695 533,693 533,692 532,691 532,690 531,689 531,688 495,688 494,689 494,794 492,796 463,796 463,833 462,834 462,835 461,836 459,836 459,866 466,866 467,867 467,870 466,871 458,871 458,878 457,879 455,879 454,878 454,838 455,837 454,836 401,836 401,874 400,875 398,875 397,874 397,828 398,827 454,827 454,791 454,792 453,793 453,794 452,795 452,797 451,798 451,799 450,800 449,799 449,797 450,796 450,795 449,794 449,792 450,791 451,792 451,793 451,792 452,791 452,790 453,789 453,787 454,786 454,785 455,784 456,785 456,787 485,787 485,745 381,745 381,835 380,836 374,836 373,835 373,567 372,566 367,566 366,565 366,528 363,528 362,529 333,529 333,608 332,609 327,609 326,608 326,202 325,202 324,201 322,201 321,200 320,200 319,199 318,199 317,198 315,198 314,197 312,197 311,196 310,196 309,195 307,195 306,194 304,194 303,193 300,193 299,192 297,192 296,191 293,191 292,190 291,190 290,189 291,188 291,186 292,185 293,186 295,186 296,187 299,187 300,188 302,188 303,189 305,189 306,190 308,190 309,191 311,191 312,192 314,192 315,193 316,193 317,194 319,194 320,195 321,195 322,196 324,196 325,197 326,197 326,178 327,177 332,177 333,178 333,526 366,526 366,172 367,171 374,171 375,172 375,534 392,534 393,533 393,91 349,91 348,90 348,72 349,71 349,4" stroke="black" stroke-width="1" /><text fill="black" x="412" y="591">Room 14</text></svg>