<?xml version="1.0" encoding="utf-8" ?>
<svg baseProfile="tiny" height="100%" version="1.2" width="100%" xmlns="http://www.w3.org/2000/svg" xmlns:ev="http://www.w3.org/2001/xml-events" xmlns:xlink="http://www.w3.org/1999/xlink"><defs /><polygon fill="#07199f" points="238,819 238,870 244,876 244,877 250,883 250,884 252,886 251,887 246,887 245,888 238,888 238,923 273,923 273,819" stroke="black" stroke-width="1" /><text fill="black" x="255" y="870">Room 1</text><polygon fill="#53464a" points="309,776 309,814 336,814 336,812 335,811 335,802 336,801 337,802 338,802 339,803 340,803 342,805 343,805 344,806 344,776" stroke="black" stroke-width="1" /><text fill="black" x="325" y="793">Room 2</text><polygon fill="#e58ff5" points="229,776 229,779 230,780 230,781 229,782 229,791 230,792 229,793 229,797 230,798 230,814 305,814 305,776" stroke="black" stroke-width="1" /><text fill="black" x="267" y="794">Room 3</text><polygon fill="#847f79" points="8,526 8,575 9,576 8,577 8,580 9,581 9,767 342,767 342,526" stroke="black" stroke-width="1" /><text fill="black" x="175" y="646">Room 4</text></svg>