<?xml version="1.0" encoding="utf-8" ?>
<svg baseProfile="tiny" height="100%" version="1.2" width="100%" xmlns="http://www.w3.org/2000/svg" xmlns:ev="http://www.w3.org/2001/xml-events" xmlns:xlink="http://www.w3.org/1999/xlink"><defs /><polygon fill="#eea948" points="45,888 45,935 44,936 44,1081 370,1081 370,927 254,927 253,928 253,959 252,960 111,960 110,959 110,927 100,927 98,925 98,888" stroke="black" stroke-width="1" /><text fill="black" x="203" y="1005">Room 1</text><polygon fill="#efdfbb" points="103,882 103,922 113,922 114,923 114,956 248,956 249,955 249,924 250,923 282,923 282,898 283,897 283,882" stroke="black" stroke-width="1" /><text fill="black" x="188" y="916">Room 2</text><polygon fill="#715039" points="181,800 181,834 180,835 181,836 255,836 255,800" stroke="black" stroke-width="1" /><text fill="black" x="217" y="818">Room 3</text><polygon fill="#7b42f5" points="257,666 257,683 258,682 258,681 259,680 259,679 261,677 261,676 262,675 264,677 264,678 267,681 267,682 268,683 268,684 270,686 270,687 272,689 272,690 274,692 274,693 276,695 275,696 258,696 257,697 257,706 283,706 284,707 284,710 283,711 257,711 257,745 278,745 279,746 279,749 278,750 277,749 276,750 254,750 253,749 253,734 252,733 218,733 218,734 227,734 228,735 228,737 227,738 227,739 226,740 226,741 225,742 225,743 224,744 224,745 223,746 223,747 222,748 222,749 221,750 221,751 220,752 220,753 219,754 219,756 218,757 217,756 217,755 215,753 215,752 213,750 213,749 211,747 211,746 210,745 210,744 208,742 208,741 206,739 206,738 204,736 204,735 205,734 214,734 214,733 181,733 181,796 254,796 255,795 255,794 256,793 291,793 292,792 291,791 291,784 292,783 292,776 291,775 291,769 292,768 292,751 290,749 289,750 288,750 287,749 286,750 284,748 284,746 285,745 291,745 292,744 292,712 291,711 290,711 289,710 289,707 290,706 291,706 292,705 292,688 291,687 291,672 292,671 291,670 291,668 292,667 291,666" stroke="black" stroke-width="1" /><text fill="black" x="245" y="750">Room 4</text><polygon fill="#14c48e" points="299,600 298,601 296,601 296,666 297,667 296,668 296,671 297,672 296,673 296,675 297,676 297,678 296,679 297,680 297,796 296,797 295,797 294,798 260,798 260,811 259,812 259,818 260,819 260,840 259,841 140,841 139,840 104,840 103,841 103,877 265,877 266,878 278,878 279,877 294,877 295,878 305,878 306,879 306,881 305,882 286,882 286,884 285,885 286,886 285,887 285,923 367,923 367,884 366,883 367,882 359,882 358,881 358,878 359,877 370,877 371,878 371,906 372,907 372,921 378,921 379,920 379,918 378,917 378,875 377,874 375,874 374,873 372,873 371,872 369,872 368,871 366,871 365,870 362,870 361,869 360,869 359,868 359,867 360,866 361,866 366,861 367,861 372,856 373,856 378,851 378,792 377,791 375,791 375,829 374,830 328,830 326,828 326,791 314,791 313,790 314,789 326,789 326,783 328,781 373,781 375,783 375,789 377,789 378,788 378,765 377,764 377,763 346,763 345,762 312,762 311,761 311,601 310,601 309,600" stroke="black" stroke-width="1" /><text fill="black" x="281" y="833">Room 5</text><polygon fill="#495c6a" points="289,474 289,545 325,545 326,546 349,546 349,474" stroke="black" stroke-width="1" /><text fill="black" x="319" y="509">Room 6</text><polygon fill="#8c63f8" points="33,457 33,730 32,731 8,731 8,857 7,858 7,882 8,883 8,884 98,884 98,837 100,835 101,835 102,836 103,835 110,835 111,836 112,835 115,835 116,836 121,836 122,835 123,836 176,836 176,781 177,780 176,779 176,778 177,777 177,730 178,729 213,729 213,726 212,725 212,720 211,719 211,715 210,714 210,710 209,709 209,704 208,703 208,699 209,698 220,698 221,699 221,703 220,704 220,716 219,717 219,729 252,729 253,728 253,697 251,697 250,696 250,695 251,694 251,693 252,692 252,690 253,689 253,687 252,686 251,686 250,685 248,685 247,684 246,684 245,683 243,683 242,682 240,682 239,681 238,681 237,680 235,680 234,679 233,679 232,678 230,678 229,677 227,677 226,676 225,676 224,675 222,675 221,674 222,673 222,672 223,671 223,670 224,669 224,668 226,666 226,665 228,663 230,665 231,665 233,667 234,667 237,670 238,670 241,673 242,673 244,675 245,675 248,678 249,678 252,681 253,681 253,662 254,661 291,661 291,658 292,657 291,656 291,601 236,601 235,600 235,547 236,546 263,546 263,458 34,458" stroke="black" stroke-width="1" /><text fill="black" x="130" y="647">Room 7</text><polygon fill="#41119f" points="36,346 35,347 35,453 133,453 134,454 135,453 138,453 139,454 140,453 141,453 142,454 143,453 146,453 147,454 148,453 149,454 150,453 157,453 158,454 159,454 160,453 172,453 173,454 174,453 262,453 263,454 263,346" stroke="black" stroke-width="1" /><text fill="black" x="149" y="399">Room 8</text><polygon fill="#6bfcb2" points="380,252 379,253 374,253 374,254 375,255 375,257 376,258 376,259 377,260 377,261 378,262 378,264 379,265 379,267 380,268 380,269 381,270 381,272 382,273 382,274 383,275 383,277 384,278 384,279 385,280 385,282 386,283 386,284 387,285 387,287 388,288 388,289 389,290 389,291 390,292 390,294 391,295 410,295 410,252" stroke="black" stroke-width="1" /><text fill="black" x="395" y="271">Room 9</text><polygon fill="#bd2f46" points="405,122 404,123 404,124 403,125 403,126 402,127 402,128 401,129 401,130 400,131 400,132 398,134 398,136 396,138 396,139 395,140 395,141 394,142 394,143 393,144 393,145 392,146 392,147 391,148 391,149 392,149 394,151 396,151 397,152 398,152 399,153 400,153 401,154 402,154 403,155 404,155 405,156 406,156 407,157 408,157 409,158 410,158 411,159 412,159 413,160 414,160 415,161 416,161 417,162 418,162 419,163 420,163 421,164 422,164 423,165 425,165 426,166 427,166 428,167 429,167 430,168 431,168 432,169 433,169 434,170 435,170 436,171 437,171 437,170 438,169 438,168 439,167 439,166 441,164 441,163 442,162 442,161 443,160 443,159 444,158 444,157 445,156 445,155 446,154 446,153 448,151 448,150 449,149 449,148 450,147 450,146 451,145 451,144 450,144 449,143 448,143 447,142 446,142 445,141 444,141 443,140 442,140 441,139 440,139 439,138 438,138 437,137 436,137 435,136 434,136 433,135 431,135 429,133 427,133 426,132 425,132 424,131 423,131 422,130 421,130 420,129 419,129 418,128 417,128 416,127 415,127 414,126 413,126 412,125 411,125 410,124 409,124 408,123 407,123 406,122" stroke="black" stroke-width="1" /><text fill="black" x="420" y="146">Room 10</text></svg>