<svg width="1038" height="160" viewBox="0 0 1038 160" fill="none" xmlns="http://www.w3.org/2000/svg">
<path d="M15.5447 144.579V10.3359H0V160H69.4331V144.579H15.5447Z" fill="#FDFFFC"/>
<path d="M118.74 104.97L146.23 36.0904L173.502 104.97H118.74ZM212.336 159.999L146.23 0L79.906 159.999H96.7597L112.959 119.255H179.283L195.482 159.999H212.336Z" fill="#FDFFFC"/>
<path d="M272.932 86.6799C292.459 91.3332 305.767 96.3653 312.858 102.101C317.766 106.051 320.166 111.137 320.166 117.305C320.166 123.474 318.857 128.506 316.185 132.023C309.53 141.275 297.531 145.929 280.677 145.929C257.169 145.929 243.861 137.975 240.97 122.121H222.807C228.098 147.444 247.406 159.997 280.677 159.997C295.568 159.997 308.003 156.913 317.985 150.311C329.93 142.628 336.147 131.157 336.147 116.169C336.147 103.886 331.293 94.4174 321.53 87.8162C314.658 82.9464 303.531 78.5636 288.259 74.6137C272.714 70.6096 262.733 67.309 258.042 64.9283C247.843 59.842 242.77 52.808 242.988 43.5554C242.988 38.6856 243.861 34.5193 246.097 31.4351C251.824 22.886 262.078 18.4491 276.696 18.4491C297.313 18.4491 309.094 25.0503 312.203 37.8199H329.057C323.493 16.2847 305.985 5.24658 276.696 5.24658C263.387 5.24658 251.606 8.76363 241.843 15.7977C231.861 22.886 226.789 33.2207 226.789 47.2889C226.789 66.4433 242.279 79.6458 272.932 86.6799Z" fill="#FDFFFC"/>
<path d="M346.616 24.6206H383.269V160H398.759V24.6206H435.412V10.3359H346.616V24.6206Z" fill="#FDFFFC"/>
<path d="M534.735 138.463V4.22021H519.19V153.884H588.623V138.463H534.735Z" fill="#FDFFFC"/>
<path fill-rule="evenodd" clip-rule="evenodd" d="M687.752 153.88C730.419 153.88 765.008 119.433 765.008 76.94C765.008 34.4472 730.419 0 687.752 0C645.085 0 610.496 34.4472 610.496 76.94C610.496 119.433 645.085 153.88 687.752 153.88ZM687.752 138.492C721.886 138.492 749.557 110.934 749.557 76.94C749.557 42.9458 721.886 15.388 687.752 15.388C653.618 15.388 625.947 42.9458 625.947 76.94C625.947 110.934 653.618 138.492 687.752 138.492Z" fill="#0096FF"/>
<path d="M706.89 62C706.89 73.0457 697.899 82 686.808 82C675.717 82 666.726 73.0457 666.726 62C666.726 50.9543 675.717 42 686.808 42C697.899 42 706.89 50.9543 706.89 62Z" fill="#FDFFFC"/>
<path d="M675.512 63.25C675.512 57.0368 680.569 52 686.808 52C693.047 52 698.104 57.0368 698.104 63.25V100.75C698.104 106.963 693.047 112 686.808 112C680.569 112 675.512 106.963 675.512 100.75V63.25Z" fill="#FDFFFC"/>
<path d="M930.715 105.89H913.643C908.353 115.576 900.99 123.476 891.717 129.211C882.39 135.163 871.918 138.031 860.846 138.031C844.21 138.031 830.029 132.079 818.248 119.742C806.739 108.109 801.176 93.77 801.176 77.0505C801.176 60.3309 806.739 45.9922 818.248 34.1424C823.593 28.6234 830.029 24.2406 837.338 20.94C844.429 17.6394 851.519 15.8538 858.61 15.8538C865.482 15.8538 871.482 16.7195 876.827 18.2887C893.026 23.1043 905.244 32.7897 913.425 47.5613H930.497C924.77 33.4931 915.662 22.0222 903.008 13.2025C890.135 4.4369 876.173 0 860.846 0C839.792 0 822.011 7.73751 807.394 22.8879C800.522 29.922 795.176 38.3088 791.413 47.5613C787.431 56.8139 785.631 66.7158 785.631 77.0505C785.631 98.2069 792.722 116.009 807.394 130.997C822.011 146.363 839.792 153.885 860.846 153.885C876.173 153.885 890.135 149.448 903.226 140.682C915.88 131.862 924.988 120.391 930.715 105.89Z" fill="#FDFFFC"/>
<path d="M967.203 153.884V83.6515L1017.98 153.884H1038L982.53 79.0522L1038 4.22021H1017.98L967.203 74.6695V4.22021H951.658V153.884H967.203Z" fill="#FDFFFC"/>
</svg>
